<svg width="287" height="184" viewBox="0 0 287 184" fill="none" xmlns="http://www.w3.org/2000/svg">
<path d="M0.626953 85.6494H286.299V183.299H0.626953V85.6494Z" fill="url(#paint0_linear)"/>
<path d="M134.908 138.148L61.0632 92.8365L1.77304 80.4895L0.582114 87.46C-0.262813 92.4053 2.05793 97.3543 6.40026 99.8672L135.382 174.508C140.34 177.377 146.453 177.377 151.41 174.508L280.364 99.8833C284.72 97.3625 287.04 92.3913 286.175 87.4335L284.962 80.4895L223.418 92.8364L151.817 138.04C146.662 141.295 140.104 141.337 134.908 138.148Z" fill="#143055"/>
<path d="M285.029 83.2184C284.839 85.1152 283.49 86.9742 280.981 88.4213L270.537 94.4534L269.583 95.0008L153.222 162.178C147.797 165.31 138.995 165.31 133.565 162.178L17.1824 94.99L16.2503 94.4534L5.80652 88.4213C3.09125 86.855 1.73633 84.8009 1.73633 82.7468C1.73633 80.6982 3.09125 78.6387 5.80652 77.0724L133.565 3.32127C138.995 0.183273 147.797 0.183273 153.222 3.32127L280.981 77.0724C283.902 78.7634 285.251 81.0126 285.029 83.2184Z" fill="#1E4880"/>
<g clip-path="url(#clip0)">
<path d="M149.848 83.1461L136.231 81.4189L143.2 85.4518L118.629 81.8385L112.188 85.5571L138.211 100.581L144.58 96.9035L129.205 88.0033L152.973 91.2618L149.848 83.1461Z" fill="white"/>
<path d="M134.484 80.4088L140.845 76.7364L140.786 76.6856L134.17 72.8661L127.801 76.5432L134.409 80.3673L134.484 80.4088Z" fill="white"/>
<path d="M157.893 75.2255C156.34 76.0886 155.897 77.4229 156.788 78.5561C156.346 77.2704 157.509 75.9799 159.586 75.451C160.559 75.2144 161.923 74.952 162.4 74.3956C160.754 74.2361 159.075 74.5451 157.893 75.2255Z" fill="#96D7E8"/>
<path d="M168.241 72.8662C167.461 72.4162 166.856 72.5567 165.655 72.8801C164.775 73.1259 163.778 73.4059 162.534 73.3107C162.289 73.2913 162.034 73.2571 161.764 73.2211C161.1 73.1068 160.403 73.0694 159.713 73.1111C158.822 73.1897 157.964 73.4725 157.09 73.977C155.337 74.9902 154.816 76.5134 155.769 77.8353C155.442 76.6709 156.211 75.4939 157.788 74.7442C159.365 73.9945 161.514 73.7851 163.43 74.1942C164.23 74.3074 165.062 74.1012 165.471 73.6887C166.147 73.0862 166.901 73.5898 168.474 72.9993L168.241 72.8662Z" fill="#48C4E5"/>
<path d="M170.909 71.1334L170.892 71.1232C165.712 68.1549 157.108 68.0246 151.944 71.0059C148.788 72.8254 147.431 75.4401 148.334 77.9618L148.243 77.9479L141.43 77.0755L135.07 80.7471L150.577 82.7219L153.964 91.4863L160.141 87.9201L158.701 83.9852L165.565 84.7892L171.743 81.2221L157.324 79.3664C157.059 79.3209 156.817 79.2395 156.618 79.1289C155.372 78.4102 154.672 77.4352 154.672 76.4185C154.672 75.4017 155.372 74.4267 156.618 73.708C159.214 72.2091 161.201 72.855 162.491 72.953C165.038 73.1461 166.616 71.5067 168.496 72.5917C168.942 72.8421 169.587 72.9358 170.186 72.8376C170.785 72.7394 171.248 72.4641 171.4 72.1154C171.552 71.7667 171.371 71.3977 170.924 71.1473L170.905 71.1362L170.909 71.1334Z" fill="white"/>
<path d="M172.245 71.8966C172.746 72.1137 173.132 72.4081 173.357 72.7459C173.82 73.4196 172.96 73.6016 172.96 73.6016C172.96 73.6016 172.208 73.7513 172.043 73.3013C171.857 72.8004 172.592 72.4465 172.245 71.8966Z" fill="#002F56"/>
</g>
<defs>
<linearGradient id="paint0_linear" x1="143.463" y1="85.6494" x2="143.463" y2="183.299" gradientUnits="userSpaceOnUse">
<stop stop-color="#143055"/>
<stop offset="1" stop-color="#143055" stop-opacity="0"/>
</linearGradient>
<clipPath id="clip0">
<rect width="78.6576" height="78.6576" fill="white" transform="matrix(0.866041 -0.499972 0.866041 0.499972 75.1895 82.7788)"/>
</clipPath>
</defs>
</svg>
