<svg width="410" height="292" viewBox="0 0 410 292" fill="none" xmlns="http://www.w3.org/2000/svg">
<path d="M105.311 76C105.311 73.7909 107.101 72 109.311 72H150.311C152.52 72 154.311 73.7909 154.311 76C154.311 78.2091 152.52 80 150.311 80H109.311C107.101 80 105.311 78.2091 105.311 76Z" fill="#45BC98"/>
<path d="M298.891 57.5C298.891 55.2909 300.681 53.5 302.891 53.5H343.891C346.1 53.5 347.891 55.2909 347.891 57.5C347.891 59.7091 346.1 61.5 343.891 61.5H302.891C300.681 61.5 298.891 59.7091 298.891 57.5Z" fill="#45BC98"/>
<path d="M12.7461 194.255C12.7461 192.046 14.537 190.255 16.7461 190.255H57.7461C59.9552 190.255 61.7461 192.046 61.7461 194.255C61.7461 196.465 59.9552 198.255 57.7461 198.255H16.7461C14.537 198.255 12.7461 196.465 12.7461 194.255Z" fill="#45BC98"/>
<path d="M329 288C329 285.791 330.791 284 333 284H360.753C362.962 284 364.753 285.791 364.753 288C364.753 290.209 362.962 292 360.753 292H333C330.791 292 329 290.209 329 288Z" fill="#45BC98"/>
<path d="M361 140.968C361 138.759 362.791 136.968 365 136.968H406C408.209 136.968 410 138.759 410 140.968C410 143.177 408.209 144.968 406 144.968H365C362.791 144.968 361 143.177 361 140.968Z" fill="#45BC98"/>
<path d="M0.609375 99.0728C0.609375 96.8636 2.40024 95.0728 4.60938 95.0728H38C40.2092 95.0728 42 96.8636 42 99.0728C42 101.282 40.2092 103.073 38 103.073H4.60938C2.40024 103.073 0.609375 101.282 0.609375 99.0728Z" fill="#45BC98"/>
<path d="M80.8711 52C80.8711 49.7909 82.662 48 84.8711 48H100.871C103.08 48 104.871 49.7909 104.871 52C104.871 54.2091 103.08 56 100.871 56H84.8711C82.662 56 80.8711 54.2091 80.8711 52Z" fill="#45BC98"/>
<path d="M49.7461 168C49.7461 165.791 51.537 164 53.7461 164H69.7461C71.9552 164 73.7461 165.791 73.7461 168C73.7461 170.209 71.9552 172 69.7461 172H53.7461C51.537 172 49.7461 170.209 49.7461 168Z" fill="#45BC98"/>
<path d="M156.182 4C156.182 1.79086 157.973 0 160.182 0H176.182C178.391 0 180.182 1.79086 180.182 4C180.182 6.20914 178.391 8 176.182 8H160.182C157.973 8 156.182 6.20914 156.182 4Z" fill="#45BC98"/>
<path d="M311.398 235.03C311.398 232.821 313.189 231.03 315.398 231.03H331.398C333.608 231.03 335.398 232.821 335.398 235.03C335.398 237.239 333.608 239.03 331.398 239.03H315.398C313.189 239.03 311.398 237.239 311.398 235.03Z" fill="#45BC98"/>
<path d="M260.949 36C260.949 33.7909 262.74 32 264.949 32H280.949C283.158 32 284.949 33.7909 284.949 36C284.949 38.2091 283.158 40 280.949 40H264.949C262.74 40 260.949 38.2091 260.949 36Z" fill="#45BC98"/>
<path d="M337 168C337 165.791 338.791 164 341 164H357C359.209 164 361 165.791 361 168C361 170.209 359.209 172 357 172H341C338.791 172 337 170.209 337 168Z" fill="#45BC98"/>
<path d="M43.9199 280.56C43.9199 278.35 45.7108 276.56 47.9199 276.56H63.9199C66.1291 276.56 67.9199 278.35 67.9199 280.56C67.9199 282.769 66.1291 284.56 63.9199 284.56H47.9199C45.7108 284.56 43.9199 282.769 43.9199 280.56Z" fill="#45BC98"/>
</svg>
