<svg width="287" height="186" viewBox="0 0 287 186" fill="none" xmlns="http://www.w3.org/2000/svg">
<path d="M0.626953 88H286.299V185.649H0.626953V88Z" fill="url(#paint0_linear)"/>
<path d="M134.908 137.816L61.0632 92.5045L1.77304 80.1575L0.582114 87.1279C-0.262813 92.0733 2.05793 97.0223 6.40026 99.5351L135.382 174.176C140.34 177.045 146.453 177.045 151.41 174.176L280.364 99.5512C284.72 97.0304 287.04 92.0593 286.175 87.1014L284.962 80.1575L223.418 92.5044L151.817 137.708C146.662 140.963 140.104 141.005 134.908 137.816Z" fill="#143055"/>
<path d="M285.029 82.8863C284.839 84.7832 283.49 86.6422 280.981 88.0892L270.537 94.1214L269.583 94.6688L153.222 161.846C147.797 164.978 138.995 164.978 133.565 161.846L17.1824 94.6579L16.2503 94.1214L5.80652 88.0893C3.09125 86.523 1.73633 84.4689 1.73633 82.4148C1.73633 80.3662 3.09125 78.3067 5.80652 76.7404L133.565 2.98924C138.995 -0.148758 147.797 -0.148758 153.222 2.98924L280.981 76.7404C283.902 78.4314 285.251 80.6805 285.029 82.8863Z" fill="#1E4880"/>
<g clip-path="url(#clip0)">
<path d="M148.138 62.0166L153.236 64.9603C147.706 68.153 147.786 73.3818 153.415 76.6316C159.045 79.8813 159.125 85.1101 153.594 88.3028C148.064 91.4956 148.144 96.7244 153.773 99.9741L148.764 102.866C145.998 104.463 141.47 104.439 138.655 102.814L108.062 85.1526C105.247 83.5277 105.207 80.9134 107.972 79.317L138.029 61.965C140.794 60.3686 145.323 60.3917 148.138 62.0166Z" fill="#0B1A2D"/>
<path d="M153.236 64.9602L178.731 79.6785C181.546 81.3034 181.586 83.9177 178.82 85.5141L153.773 99.9741C148.144 96.7243 148.064 91.4956 153.594 88.3028C159.125 85.1101 159.045 79.8813 153.415 76.6315C147.786 73.3818 147.706 68.153 153.236 64.9602Z" fill="white"/>
</g>
<defs>
<linearGradient id="paint0_linear" x1="143.463" y1="88" x2="143.463" y2="185.649" gradientUnits="userSpaceOnUse">
<stop stop-color="#143055"/>
<stop offset="1" stop-color="#143055" stop-opacity="0"/>
</linearGradient>
<clipPath id="clip0">
<rect width="46.2746" height="47.1009" fill="white" transform="matrix(0.866041 -0.499972 0.866041 0.499972 102.963 82.209)"/>
</clipPath>
</defs>
</svg>
