<svg width="322" height="209" viewBox="0 0 322 209" fill="none" xmlns="http://www.w3.org/2000/svg">
<path d="M302.578 83.2923C302.389 85.1865 301.041 87.0428 298.536 88.4877L288.107 94.5111L287.155 95.0577L170.962 162.138C165.545 165.266 156.756 165.266 151.333 162.138L35.1191 95.0469L34.1883 94.5111L23.7596 88.4877C21.0483 86.9237 19.6953 84.8726 19.6953 82.8215C19.6953 80.7758 21.0483 78.7193 23.7596 77.1553L151.333 3.51074C156.756 0.377278 165.545 0.377278 170.962 3.51074L298.536 77.1553C301.453 78.8438 302.8 81.0897 302.578 83.2923Z" fill="#3FAC8B" fill-opacity="0.8"/>
<path fill-rule="evenodd" clip-rule="evenodd" d="M296.035 84.158L296.038 84.1563C297.151 83.5147 297.486 83.0095 297.579 82.8209C297.567 82.7984 297.551 82.7699 297.529 82.7352C297.378 82.5006 296.969 82.0261 296.035 81.485C296.034 81.4842 296.032 81.4834 296.031 81.4826L168.459 7.83886C166.69 6.81591 164.056 6.16064 161.15 6.16064C158.244 6.16064 155.607 6.81582 153.835 7.83994L26.2594 81.4856L26.258 81.4864C25.3961 81.9836 24.9796 82.4288 24.804 82.6791C24.7609 82.7406 24.7332 82.7883 24.7156 82.8227C24.733 82.8567 24.7604 82.9038 24.8031 82.9646C24.9777 83.2133 25.3936 83.658 26.258 84.1566L26.2604 84.158L36.689 90.1814L37.6189 90.7167L153.832 157.807C153.832 157.807 153.833 157.807 153.833 157.807C155.606 158.83 158.243 159.484 161.15 159.484C164.057 159.484 166.693 158.829 168.462 157.808L284.666 90.721L285.618 90.1744L296.035 84.158ZM288.107 94.5111L287.155 95.0577L170.962 162.138C165.545 165.266 156.756 165.266 151.333 162.138L35.1191 95.0469L34.1883 94.5111L23.7596 88.4877C21.0483 86.9237 19.6953 84.8726 19.6953 82.8215C19.6953 80.7758 21.0483 78.7193 23.7596 77.1553L151.333 3.51074C156.756 0.377278 165.545 0.377278 170.962 3.51074L298.536 77.1553C301.453 78.8438 302.8 81.0897 302.578 83.2923C302.389 85.1865 301.041 87.0428 298.536 88.4877L288.107 94.5111ZM24.688 82.7551C24.6883 82.7552 24.6895 82.759 24.6909 82.7665C24.6884 82.7588 24.6877 82.7551 24.688 82.7551ZM24.6907 82.8797C24.6893 82.887 24.688 82.8907 24.6877 82.8907C24.6875 82.8907 24.6882 82.887 24.6907 82.8797Z" fill="#70C6A6" fill-opacity="0.4"/>
<path fill-rule="evenodd" clip-rule="evenodd" d="M301.223 115.223C303.778 113.75 305.151 111.857 305.345 109.926C305.391 109.465 305.37 109.002 305.282 108.543L302.578 83.2921C302.389 85.1863 301.041 87.0426 298.536 88.4875L288.107 94.5109L287.155 95.0575L286.73 95.3025L171.154 28.584C165.631 25.3893 156.671 25.3893 151.142 28.584L35.5641 95.3037L35.119 95.0467L34.1882 94.5109L23.7596 88.4875C21.0482 86.9235 19.6952 84.8724 19.6952 82.8213L16.9219 109.188L16.9363 109.196C16.9319 109.279 16.9297 109.362 16.9297 109.446C16.9297 111.537 18.3091 113.628 21.0735 115.223L31.706 121.364L32.6551 121.91L151.142 190.313C156.671 193.502 165.631 193.502 171.154 190.313L289.619 121.921L290.59 121.364L301.223 115.223Z" fill="url(#paint0_radial)"/>
<mask id="mask0" mask-type="alpha" maskUnits="userSpaceOnUse" x="16" y="26" width="290" height="167">
<path fill-rule="evenodd" clip-rule="evenodd" d="M301.221 115.223C303.776 113.75 305.15 111.857 305.343 109.926C305.389 109.465 305.368 109.002 305.28 108.543L302.576 83.2921C302.387 85.1863 301.039 87.0426 298.534 88.4875L288.105 94.5109L287.153 95.0575L286.728 95.3025L171.153 28.584C165.629 25.3893 156.669 25.3893 151.14 28.584L35.5622 95.3037L35.1171 95.0467L34.1862 94.5109L23.7576 88.4875C21.0463 86.9235 19.6933 84.8724 19.6933 82.8213L16.9199 109.188L16.9343 109.196C16.9299 109.279 16.9277 109.362 16.9277 109.446C16.9277 111.537 18.3072 113.628 21.0715 115.223L31.7041 121.364L32.6531 121.91L151.14 190.313C156.669 193.502 165.629 193.502 171.153 190.313L289.617 121.921L290.588 121.364L301.221 115.223Z" fill="#3FAC8B"/>
</mask>
<g mask="url(#mask0)">
<g filter="url(#filter0_f)">
<path fill-rule="evenodd" clip-rule="evenodd" d="M301.221 115.223C303.776 113.75 305.15 111.857 305.343 109.926C305.389 109.465 305.368 109.002 305.28 108.543L302.576 83.2921C302.387 85.1863 301.039 87.0426 298.534 88.4875L288.105 94.5109L287.153 95.0575L286.728 95.3025L171.153 28.584C165.629 25.3893 156.669 25.3893 151.14 28.584L35.5622 95.3037L35.1171 95.0467L34.1862 94.5109L23.7576 88.4875C21.0463 86.9235 19.6933 84.8724 19.6933 82.8213L16.9199 109.188L16.9343 109.196C16.9299 109.279 16.9277 109.362 16.9277 109.446C16.9277 111.537 18.3072 113.628 21.0715 115.223L31.7041 121.364L32.6531 121.91L151.14 190.313C156.669 193.502 165.629 193.502 171.153 190.313L289.617 121.921L290.588 121.364L301.221 115.223Z" fill="#45BC98"/>
</g>
</g>
<path d="M131.126 38.8369C127.991 37.0267 127.991 34.0919 131.126 32.2818L155.52 18.199C158.656 16.3889 163.739 16.3889 166.875 18.199L191.269 32.2818C194.404 34.0919 194.404 37.0267 191.269 38.8369L166.875 52.9197C163.739 54.7298 158.656 54.7298 155.52 52.9197L131.126 38.8369Z" fill="#E5E5E5"/>
<path d="M160.871 51.6492L128.787 35.3191L129.983 30.903C130.869 27.6296 132.036 24.4386 133.471 21.3656L135.256 17.5408H187.549L189.072 20.912C190.596 24.2856 191.8 27.7952 192.666 31.3944L193.611 35.3191L160.871 51.6492Z" fill="#E5E5E5"/>
<path d="M138.696 23.2764C133.992 20.5612 133.992 16.159 138.696 13.4438L152.886 5.25171C157.589 2.53651 165.214 2.5365 169.918 5.2517L184.108 13.4438C188.811 16.159 188.811 20.5612 184.108 23.2764L169.918 31.4685C165.214 34.1837 157.589 34.1837 152.886 31.4685L138.696 23.2764Z" fill="white"/>
<path d="M85.2398 65.0585C82.1043 63.2484 82.1043 60.3136 85.2398 58.5035L109.634 44.4207C112.769 42.6105 117.853 42.6105 120.988 44.4207L145.382 58.5035C148.518 60.3136 148.518 63.2484 145.382 65.0585L120.988 79.1413C117.853 80.9515 112.769 80.9515 109.634 79.1413L85.2398 65.0585Z" fill="#E5E5E5"/>
<path d="M114.984 77.8709L82.9004 61.5408L84.0961 57.1247C84.9824 53.8512 86.1493 50.6603 87.5839 47.5873L89.3694 43.7625H141.662L143.185 47.1336C144.71 50.5073 145.913 54.0169 146.779 57.6161L147.724 61.5408L114.984 77.8709Z" fill="#E5E5E5"/>
<path d="M92.8089 49.4981C88.1057 46.7829 88.1057 42.3807 92.8089 39.6655L106.999 31.4734C111.702 28.7582 119.328 28.7582 124.031 31.4734L138.221 39.6655C142.924 42.3807 142.924 46.7829 138.221 49.4981L124.031 57.6902C119.328 60.4054 111.702 60.4054 106.999 57.6902L92.8089 49.4981Z" fill="white"/>
<path d="M39.3511 91.2805C36.2156 89.4703 36.2156 86.5355 39.3511 84.7254L63.745 70.6426C66.8805 68.8325 71.9641 68.8325 75.0996 70.6426L99.4935 84.7254C102.629 86.5355 102.629 89.4703 99.4935 91.2805L75.0996 105.363C71.9641 107.173 66.8805 107.173 63.745 105.363L39.3511 91.2805Z" fill="#E5E5E5"/>
<path d="M69.0958 104.093L37.0117 87.7627L38.2074 83.3466C39.0937 80.0732 40.2606 76.8822 41.6952 73.8092L43.4807 69.9844H95.7737L97.2968 73.3556C98.821 76.7292 100.024 80.2388 100.891 83.838L101.836 87.7627L69.0958 104.093Z" fill="#E5E5E5"/>
<path d="M46.9202 75.72C42.217 73.0048 42.217 68.6026 46.9202 65.8874L61.1104 57.6953C65.8136 54.9801 73.439 54.9801 78.1422 57.6953L92.3324 65.8874C97.0356 68.6026 97.0356 73.0048 92.3324 75.72L78.1422 83.9121C73.439 86.6273 65.8136 86.6273 61.1104 83.9121L46.9202 75.72Z" fill="white"/>
<path d="M177.015 65.0585C173.88 63.2484 173.88 60.3136 177.015 58.5035L201.409 44.4207C204.545 42.6105 209.628 42.6105 212.764 44.4207L237.158 58.5035C240.293 60.3136 240.293 63.2484 237.158 65.0585L212.764 79.1413C209.628 80.9515 204.545 80.9515 201.409 79.1413L177.015 65.0585Z" fill="#E5E5E5"/>
<path d="M206.76 77.8709L174.676 61.5408L175.871 57.1247C176.758 53.8512 177.925 50.6603 179.359 47.5873L181.145 43.7625H233.438L234.961 47.1336C236.485 50.5073 237.688 54.0169 238.555 57.6161L239.5 61.5408L206.76 77.8709Z" fill="#E5E5E5"/>
<path d="M184.584 49.4981C179.881 46.7829 179.881 42.3807 184.584 39.6655L198.774 31.4734C203.478 28.7582 211.103 28.7582 215.806 31.4734L229.996 39.6655C234.7 42.3807 234.7 46.7829 229.996 49.4981L215.806 57.6902C211.103 60.4054 203.478 60.4054 198.774 57.6902L184.584 49.4981Z" fill="white"/>
<path d="M131.126 91.2805C127.991 89.4703 127.991 86.5355 131.126 84.7254L155.52 70.6426C158.656 68.8325 163.739 68.8325 166.875 70.6426L191.269 84.7254C194.404 86.5355 194.404 89.4703 191.269 91.2805L166.875 105.363C163.739 107.173 158.656 107.173 155.52 105.363L131.126 91.2805Z" fill="#E5E5E5"/>
<path d="M160.871 104.093L128.787 87.7627L129.983 83.3466C130.869 80.0732 132.036 76.8822 133.471 73.8092L135.256 69.9844H187.549L189.072 73.3556C190.596 76.7292 191.8 80.2388 192.666 83.838L193.611 87.7627L160.871 104.093Z" fill="#E5E5E5"/>
<path d="M138.696 75.72C133.992 73.0048 133.992 68.6026 138.696 65.8874L152.886 57.6953C157.589 54.9801 165.214 54.9801 169.918 57.6953L184.108 65.8874C188.811 68.6026 188.811 73.0048 184.108 75.72L169.918 83.9121C165.214 86.6273 157.589 86.6273 152.886 83.9121L138.696 75.72Z" fill="white"/>
<path d="M85.2398 117.502C82.1043 115.692 82.1043 112.757 85.2398 110.947L109.634 96.8643C112.769 95.0541 117.853 95.0541 120.988 96.8643L145.382 110.947C148.518 112.757 148.518 115.692 145.382 117.502L120.988 131.585C117.853 133.395 112.769 133.395 109.634 131.585L85.2398 117.502Z" fill="#E5E5E5"/>
<path d="M114.984 130.315L82.9004 113.984L84.0961 109.568C84.9824 106.295 86.1493 103.104 87.5839 100.031L89.3694 96.2061H141.662L143.185 99.5772C144.71 102.951 145.913 106.461 146.779 110.06L147.724 113.984L114.984 130.315Z" fill="#E5E5E5"/>
<path d="M92.8089 101.942C88.1057 99.2265 88.1057 94.8243 92.8089 92.1091L106.999 83.917C111.702 81.2018 119.328 81.2018 124.031 83.917L138.221 92.1091C142.924 94.8243 142.924 99.2265 138.221 101.942L124.031 110.134C119.328 112.849 111.702 112.849 106.999 110.134L92.8089 101.942Z" fill="white"/>
<path d="M222.902 91.2805C219.766 89.4703 219.766 86.5355 222.902 84.7254L247.296 70.6426C250.431 68.8325 255.515 68.8325 258.65 70.6426L283.044 84.7254C286.18 86.5355 286.18 89.4703 283.044 91.2805L258.65 105.363C255.515 107.173 250.431 107.173 247.296 105.363L222.902 91.2805Z" fill="#E5E5E5"/>
<path d="M252.647 104.093L220.562 87.7627L221.758 83.3466C222.645 80.0732 223.811 76.8822 225.246 73.8092L227.032 69.9844H279.324L280.848 73.3556C282.372 76.7292 283.575 80.2388 284.442 83.838L285.386 87.7627L252.647 104.093Z" fill="#E5E5E5"/>
<path d="M230.471 75.72C225.768 73.0048 225.768 68.6026 230.471 65.8874L244.661 57.6953C249.364 54.9801 256.99 54.9801 261.693 57.6953L275.883 65.8874C280.586 68.6026 280.586 73.0048 275.883 75.72L261.693 83.9121C256.99 86.6273 249.364 86.6273 244.661 83.9121L230.471 75.72Z" fill="white"/>
<path d="M177.015 117.502C173.88 115.692 173.88 112.757 177.015 110.947L201.409 96.8643C204.545 95.0541 209.628 95.0541 212.764 96.8643L237.158 110.947C240.293 112.757 240.293 115.692 237.158 117.502L212.764 131.585C209.628 133.395 204.545 133.395 201.409 131.585L177.015 117.502Z" fill="#E5E5E5"/>
<path d="M206.76 130.315L174.676 113.984L175.871 109.568C176.758 106.295 177.925 103.104 179.359 100.031L181.145 96.2061H233.438L234.961 99.5772C236.485 102.951 237.688 106.461 238.555 110.06L239.5 113.984L206.76 130.315Z" fill="#E5E5E5"/>
<path d="M184.584 101.942C179.881 99.2265 179.881 94.8243 184.584 92.1091L198.774 83.917C203.478 81.2018 211.103 81.2018 215.806 83.917L229.996 92.1091C234.7 94.8243 234.7 99.2265 229.996 101.942L215.806 110.134C211.103 112.849 203.478 112.849 198.774 110.134L184.584 101.942Z" fill="white"/>
<path d="M131.126 143.724C127.991 141.913 127.991 138.979 131.126 137.169L155.52 123.086C158.656 121.276 163.739 121.276 166.875 123.086L191.269 137.169C194.404 138.979 194.404 141.913 191.269 143.724L166.875 157.806C163.739 159.617 158.656 159.617 155.52 157.806L131.126 143.724Z" fill="#E5E5E5"/>
<path d="M160.871 156.536L128.787 140.206L129.983 135.79C130.869 132.516 132.036 129.325 133.471 126.252L135.256 122.427H187.549L189.072 125.799C190.596 129.172 191.8 132.682 192.666 136.281L193.611 140.206L160.871 156.536Z" fill="#E5E5E5"/>
<path d="M138.696 128.163C133.992 125.448 133.992 121.046 138.696 118.331L152.886 110.138C157.589 107.423 165.214 107.423 169.918 110.138L184.108 118.331C188.811 121.046 188.811 125.448 184.108 128.163L169.918 136.355C165.214 139.07 157.589 139.07 152.886 136.355L138.696 128.163Z" fill="white"/>
<defs>
<filter id="filter0_f" x="-175.08" y="-165.812" width="672.447" height="550.517" filterUnits="userSpaceOnUse" color-interpolation-filters="sRGB">
<feFlood flood-opacity="0" result="BackgroundImageFix"/>
<feBlend mode="normal" in="SourceGraphic" in2="BackgroundImageFix" result="shape"/>
<feGaussianBlur stdDeviation="96" result="effect1_foregroundBlur"/>
</filter>
<radialGradient id="paint0_radial" cx="0" cy="0" r="1" gradientUnits="userSpaceOnUse" gradientTransform="translate(161.145 126.601) rotate(90) scale(157.215 627.526)">
<stop stop-color="#70C6A6"/>
<stop offset="1" stop-color="#70C6A6" stop-opacity="0"/>
</radialGradient>
</defs>
</svg>
